# xmcd
#
# Track frame offsets:
# 150
# 14582
# 28827
# 42842
# 55962
# 69507
# 82097
# 95832
# 108817
# 121382
# 135262
# 148440
#
# Disc length: 2121 seconds
#
#
# Revision: 0
# Processed by: cddbd v1.5.1PL0 Copyright (c) Steve Scherf et al.
# Submitted via: FreeRIP 2.70 
#
DISCID=ad08470c
DTITLE=Jose Alfredo Jimenez - Tu y las Nubes
DYEAR=1995
DGENRE=Ranchero
TTITLE0=Tu y Las Nubes
TTITLE1=La Noche De Mi Mal
TTITLE2=Cuando Sale La Luna
TTITLE3=Corazon Corazon
TTITLE4=Serenata Huasteca
TTITLE5=Cuatro Caminos
TTITLE6=Tu Recuerdo y Yo
TTITLE7=Guitarras De Media Noche
TTITLE8=Ella
TTITLE9=Camino De Guanajuato
TTITLE10=El Jinete
TTITLE11=Serenata Sin Luna
EXTD=
EXTT0=
EXTT1=
EXTT2=
EXTT3=
EXTT4=
EXTT5=
EXTT6=
EXTT7=
EXTT8=
EXTT9=
EXTT10=
EXTT11=
PLAYORDER=
